<?xml version="1.0" standalone="no"?>
<!DOCTYPE svg PUBLIC "-//W3C//DTD SVG 20010904//EN"
 "http://www.w3.org/TR/2001/REC-SVG-20010904/DTD/svg10.dtd">
<svg version="1.0" xmlns="http://www.w3.org/2000/svg"
 width="1468.000000pt" height="1468.000000pt" viewBox="0 0 1468.000000 1468.000000"
 preserveAspectRatio="xMidYMid meet">
<metadata>
Created by potrace 1.14, written by Peter Selinger 2001-2017
</metadata>
<g transform="translate(0.000000,1468.000000) scale(0.100000,-0.100000)"
fill="#000000" stroke="none">
<path d="M7380 11709 c-998 -49 -1822 -277 -2227 -618 -75 -63 -146 -155 -184
-236 -15 -33 -44 -85 -64 -115 -59 -89 -288 -562 -358 -740 -86 -216 -177
-491 -236 -715 l-49 -180 -748 -5 -749 -5 -56 -28 c-139 -68 -212 -180 -228
-347 -11 -113 -29 -165 -76 -231 -44 -59 -101 -102 -175 -131 -54 -22 -65 -23
-625 -28 l-570 -5 -55 -26 c-188 -89 -271 -300 -197 -499 28 -77 130 -178 212
-211 l60 -24 1160 -5 1160 -5 65 -32 c120 -59 199 -163 218 -285 26 -167 -62
-328 -218 -402 l-65 -31 -570 -5 c-534 -5 -573 -6 -615 -24 -157 -67 -233
-174 -251 -352 -20 -191 -88 -295 -244 -366 -49 -23 -57 -23 -500 -28 l-450
-5 -63 -29 c-84 -39 -170 -130 -201 -214 -19 -51 -22 -76 -19 -154 2 -78 8
-102 32 -153 38 -76 105 -143 181 -181 l60 -29 1841 -3 1842 -2 52 -148 c152
-424 360 -842 595 -1197 278 -418 616 -666 1055 -772 l105 -26 945 -9 c520 -4
1181 -7 1470 -5 500 3 530 4 634 26 464 96 829 350 1111 772 465 696 799 1604
921 2499 14 107 32 207 39 221 7 15 11 38 8 51 -3 13 2 128 11 254 9 126 16
320 17 432 l2 202 286 0 c157 0 305 5 329 10 113 27 213 104 262 204 24 49 33
84 40 157 11 111 28 166 75 234 42 61 87 98 163 133 l57 27 570 5 c633 6 610
4 707 75 232 170 199 530 -60 657 l-67 33 -1160 5 c-805 4 -1169 9 -1190 16
-183 66 -290 228 -271 408 15 144 129 282 271 327 29 9 191 14 610 18 l570 6
63 34 c79 43 155 126 182 199 12 30 25 99 30 153 7 77 16 111 39 156 39 78
102 139 181 177 l65 31 445 5 c493 6 483 5 586 75 55 38 103 98 137 172 17 38
22 67 22 143 0 86 -3 101 -31 160 -57 119 -163 199 -290 220 -37 6 -842 10
-2165 10 l-2105 0 -140 46 c-595 196 -1433 292 -2214 253z m336 -544 c3 -13 4
-48 2 -77 -6 -62 -2 -78 18 -78 11 0 14 19 14 90 l0 90 58 0 c31 0 101 -7 155
-15 430 -65 560 -264 262 -401 -225 -103 -645 -115 -915 -26 -314 103 -301
292 25 391 85 26 228 49 312 50 58 1 63 -1 69 -24z m595 -1984 c56 -56 23
-142 -55 -144 -32 -1 -44 5 -68 32 -24 27 -29 39 -24 65 14 73 95 99 147 47z
m-387 -431 c150 -38 260 -104 371 -222 119 -126 180 -257 205 -439 42 -303
-128 -622 -409 -768 -201 -104 -417 -117 -631 -37 -106 39 -186 91 -270 176
-84 84 -137 164 -176 270 -220 585 306 1175 910 1020z m911 -65 c55 -54 17
-149 -60 -149 -51 0 -85 36 -85 90 0 34 5 47 26 63 37 29 89 27 119 -4z m158
-786 c60 -27 71 -109 20 -149 -39 -31 -86 -26 -117 11 -39 47 -30 105 21 133
34 18 45 19 76 5z m-384 -734 c54 -27 61 -103 14 -144 -22 -19 -34 -22 -67
-18 -88 12 -106 119 -28 161 34 19 46 19 81 1z m-810 -356 c63 -22 77 -107 24
-149 -37 -29 -79 -26 -114 9 -55 56 -33 116 57 151 1 0 15 -5 33 -11z"/>
<path d="M7980 8160 c-138 -110 -259 -200 -269 -200 -33 0 -71 -45 -71 -85 0
-48 45 -95 90 -95 41 0 90 47 90 87 0 23 36 64 215 243 118 118 215 220 215
227 0 6 -4 14 -9 18 -5 3 -123 -85 -261 -195z"/>
<path d="M3523 11100 c-298 -46 -516 -259 -570 -555 -36 -197 29 -412 167
-559 139 -147 267 -206 466 -214 102 -4 132 -1 199 17 123 34 208 84 300 176
132 132 184 251 192 440 6 143 -7 208 -68 335 -56 114 -178 238 -289 292 -125
61 -278 87 -397 68z"/>
<path d="M2002 10665 c-229 -116 -165 -458 91 -483 217 -21 357 228 227 406
-45 62 -108 94 -194 99 -62 4 -78 1 -124 -22z"/>
<path d="M13255 6799 c-222 -31 -413 -214 -456 -437 -15 -81 -6 -209 21 -287
58 -167 216 -308 391 -350 284 -67 572 104 654 389 24 81 17 248 -13 329 -89
244 -339 393 -597 356z"/>
<path d="M11981 6484 c-157 -79 -183 -303 -49 -419 168 -143 419 -29 421 191
1 107 -59 198 -158 240 -57 24 -152 18 -214 -12z"/>
</g>
</svg>
